<svg xmlns="http://www.w3.org/2000/svg" viewBox="0 0 99 33.9" id="icon-__logo"><defs>
<style type="text/css">
	#icon-__logo .st0{fill:#ffffff;}
	#icon-__logo .st1{fill:#ffffff;}
</style></defs>
<path id="icon-__logo__路径_" class="st0" d="M34.2,33.9h-2.8c-1,0-1.8-0.8-1.8-1.8c0-1,0.8-1.8,1.8-1.8h2.8c5.1,0,9.2-4.1,9.2-9.2  c0-3.5-2-6.7-5.1-8.3c-0.7-0.3-1.1-1.1-1-1.9L38.1,6l-4.8,2.1c-0.8,0.3-1.7,0.1-2.2-0.6c-3-4.1-8.7-5.1-12.9-2.1  c-0.8,0.6-1.5,1.3-2.1,2.1c-0.5,0.7-1.4,0.9-2.2,0.6L9,6l0.7,5c0.1,0.8-0.3,1.5-1,1.9c-3.1,1.5-5,4.7-5.1,8.1c0,2.4,0.9,4.8,2.7,6.5  c1.8,1.8,4.3,2.9,6.8,2.9h7.5c2.8-0.1,5-2.5,4.9-5.4c-0.1-2.7-2.2-4.8-4.9-4.9c-1,0-1.8-0.8-1.8-1.8c0-1,0.8-1.8,1.8-1.8  c0,0,0,0,0,0c4.8,0.2,8.6,4.2,8.5,9.1c-0.2,4.6-3.9,8.3-8.5,8.5h-7.5c-3.5,0-6.9-1.5-9.4-4c-2.4-2.4-3.8-5.7-3.7-9.1  c0.1-4.3,2.3-8.3,5.9-10.6l-1-7C4.8,2.6,5.1,1.9,5.6,1.6c0.5-0.4,1.2-0.5,1.8-0.2l6.6,2.9C18.8-1,27-1.4,32.2,3.4  c0.3,0.3,0.6,0.5,0.8,0.8l6.5-2.8c0.9-0.4,2,0,2.4,0.9c0.1,0.3,0.2,0.6,0.1,1l-1,6.9c6,3.8,7.8,11.7,4,17.7  C42.7,31.7,38.6,33.9,34.2,33.9L34.2,33.9z"></path>
<path id="icon-__logo__路径_6" class="st1" d="M59.7,4l-0.4,0.5C59,4,58.7,3.6,58.4,3.2c-0.4-0.5-1.1-0.6-1.6-0.2c-0.5,0.4-0.6,1.1-0.2,1.6  c0.4,0.6,0.8,1.2,1,1.8l-2.4,2.8c-0.4,0.5-0.3,1.2,0.1,1.5c0,0,0,0,0,0c0.2,0.2,0.4,0.3,0.7,0.3c0.3,0,0.6-0.1,0.8-0.4l1-1.2v3.2  l-2.9,3.5c-0.4,0.5-0.3,1.2,0.1,1.5c0,0,0,0,0,0c0.2,0.2,0.4,0.3,0.7,0.3c0.3,0,0.6-0.1,0.8-0.4l1.2-1.4v0.3c0,1.1-0.3,2.2-0.9,3.2  l-0.4,0.6c-0.3,0.5-0.1,1.2,0.4,1.5c0.2,0.1,0.4,0.2,0.6,0.2c0.4,0,0.7-0.2,0.9-0.5l0.4-0.6c0.8-1.3,1.2-2.8,1.2-4.4V8.4  c0-0.5,0-1-0.1-1.4l1.3-1.5c0.4-0.5,0.3-1.2-0.2-1.5C60.7,3.5,60.1,3.6,59.7,4z"></path>
<path id="icon-__logo__路径_7" class="st1" d="M62.9,6.7h12c0.6,0,1.1-0.5,1.1-1.1c0-0.6-0.5-1.1-1.1-1.1h-0.6V3.9c0-0.6-0.5-1.1-1.1-1.1  c-0.6,0-1.1,0.5-1.1,1.1c0,0,0,0,0,0v0.6h-6.2V3.9c0-0.6-0.5-1.1-1.1-1.1s-1.1,0.5-1.1,1.1v0.6h-0.8c-0.6,0-1.1,0.5-1.1,1.1  C61.8,6.2,62.3,6.7,62.9,6.7z"></path>
<path id="icon-__logo__路径_8" class="st1" d="M82.3,5.3h13.9c0.6,0,1.1-0.5,1.1-1.1s-0.5-1.1-1.1-1.1H82.3c-0.6,0-1.1,0.5-1.1,1.1  S81.7,5.3,82.3,5.3z"></path>
<path id="icon-__logo__复合路径_5" class="st1" d="M80.7,12h5.6l-5.1,5.3c-1,1.1-1,2.8,0.1,3.9c0.5,0.5,1.2,0.8,1.9,0.8h12.2  c1.5,0,2.7-1.2,2.8-2.7c0-0.7-0.3-1.4-0.8-1.9L92.3,12h5.6c0.6,0,1.1-0.5,1.1-1.1c0-0.6-0.5-1.1-1.1-1.1H80.7  c-0.6,0-1.1,0.5-1.1,1.1C79.6,11.5,80.1,12,80.7,12C80.7,12,80.7,12,80.7,12z M95.9,19.4c-0.1,0.2-0.3,0.3-0.5,0.3H83.2  c-0.2,0-0.4-0.1-0.5-0.3c-0.1-0.2-0.1-0.4,0.1-0.6l6.5-6.8l6.5,6.8C95.9,19,96,19.2,95.9,19.4L95.9,19.4z"></path>
<path id="icon-__logo__复合路径_6" class="st1" d="M76,18.4v-7.1c0-1.9-1.6-3.5-3.5-3.5h-7.2c-1.9,0-3.5,1.6-3.5,3.5v7.1  c0,1.9,1.5,3.5,3.5,3.6c0,0,0,0,0,0h7.1C74.4,22,76,20.4,76,18.4C76,18.5,76,18.4,76,18.4z M73.8,11.4v2.2H70V10h2.5  C73.2,10,73.8,10.6,73.8,11.4C73.8,11.3,73.8,11.3,73.8,11.4L73.8,11.4z M65.3,10h2.5v3.5H64v-2.2C64,10.6,64.5,10,65.3,10  C65.3,10,65.3,10,65.3,10z M64,18.4v-2.7h3.8v4h-2.5C64.6,19.8,64,19.2,64,18.4C64,18.5,64,18.4,64,18.4z M72.4,19.7H70v-4h3.8v2.6  C73.8,19.1,73.2,19.7,72.4,19.7C72.5,19.7,72.5,19.7,72.4,19.7L72.4,19.7z"></path>
<g>
	<path class="st1" d="M60.8,25c-0.3-0.2-0.7-0.2-1,0c-0.1,0.1-0.2,0.3-0.3,0.5l-1,3.5l-1-3.5c-0.1-0.2-0.2-0.4-0.3-0.5   c-0.3-0.2-0.8-0.2-1.1,0c-0.1,0.1-0.2,0.3-0.3,0.5L55,30.7c0,0.2,0,0.4,0.1,0.6c0.1,0.1,0.2,0.2,0.4,0.2c0.3,0,0.4-0.1,0.5-0.2   c0.1-0.1,0.1-0.2,0.1-0.4l0.6-3.7c0.2,0.6,0.3,1.1,0.5,1.7c0.2,0.7,0.5,1.5,0.7,2.2c0,0.2,0.1,0.3,0.2,0.3c0.1,0.1,0.2,0.1,0.4,0.1   c0.2,0,0.3-0.1,0.4-0.2c0.1-0.1,0.1-0.2,0.2-0.3l1.2-3.9l0.6,3.8c0,0.2,0.1,0.3,0.2,0.4c0.1,0.1,0.2,0.2,0.4,0.2c0,0,0,0,0,0   c0.4,0,0.5-0.2,0.5-0.3c0-0.1,0-0.3,0-0.4l-0.8-5.1C61.1,25.3,61,25.1,60.8,25z"></path>
	<path class="st1" d="M67.1,25.3c0-0.1-0.1-0.3-0.3-0.3c-0.2-0.2-0.6-0.2-0.9,0c-0.1,0.1-0.2,0.2-0.2,0.3l-1.9,5.3   c0,0.1-0.1,0.4,0.1,0.7c0.1,0.1,0.2,0.2,0.5,0.2c0.1,0,0.2,0,0.3-0.1c0.1-0.1,0.1-0.1,0.2-0.2c0-0.1,0.1-0.2,0.1-0.2   c0-0.1,0.1-0.2,0.1-0.2l0.3-0.8h2l0.4,1.1c0,0.1,0.1,0.3,0.2,0.3c0.1,0.1,0.2,0.2,0.4,0.2c0,0,0,0,0,0c0.3,0,0.5-0.2,0.5-0.3   c0.1-0.2,0.1-0.3,0-0.5L67.1,25.3z M65.7,28.6l0.7-1.9l0.7,1.9H65.7z"></path>
	<path class="st1" d="M76.1,25.8c-0.2-0.3-0.6-0.6-0.9-0.7c-0.7-0.4-1.9-0.4-2.6,0c-0.4,0.2-0.7,0.4-0.9,0.7   c-0.2,0.3-0.4,0.7-0.5,1.1c-0.1,0.4-0.2,0.8-0.2,1.3c0,0.4,0.1,0.9,0.2,1.3c0.1,0.4,0.3,0.8,0.6,1.1c0.2,0.3,0.6,0.6,0.9,0.7   c0.4,0.2,0.8,0.3,1.3,0.3c0.5,0,0.9-0.1,1.3-0.3c0.4-0.2,0.7-0.4,0.9-0.8c0.2-0.3,0.4-0.7,0.5-1.1c0.1-0.4,0.2-0.8,0.2-1.3   c0-0.4-0.1-0.9-0.2-1.3C76.5,26.4,76.3,26.1,76.1,25.8z M75.6,28.1c0,0.3,0,0.7-0.1,0.9c-0.1,0.3-0.2,0.5-0.3,0.7   c-0.1,0.2-0.3,0.3-0.5,0.4c-0.4,0.2-1.1,0.2-1.6,0c-0.2-0.1-0.4-0.3-0.5-0.5c-0.1-0.2-0.3-0.5-0.3-0.7c-0.1-0.3-0.1-0.6-0.1-0.9   c0-0.3,0-0.6,0.1-0.9c0.1-0.3,0.2-0.5,0.3-0.7c0.1-0.2,0.3-0.4,0.5-0.5c0.2-0.1,0.5-0.2,0.8-0.2s0.6,0.1,0.8,0.2   c0.2,0.1,0.4,0.3,0.5,0.5c0.1,0.2,0.3,0.5,0.3,0.7C75.6,27.5,75.6,27.8,75.6,28.1z"></path>
	<path class="st1" d="M83.8,24.9c0,0-0.1,0-0.2-0.1c-0.1,0-0.2,0-0.2,0c-0.1,0-0.2,0.1-0.2,0.1C83.1,25,83,25.1,83,25.2l-1.2,2.1   l-1.3-2.2c-0.1-0.2-0.3-0.3-0.4-0.3c-0.1,0-0.3,0-0.4,0.1c-0.1,0.1-0.2,0.2-0.3,0.4c0,0.1,0,0.3,0.1,0.4l1.6,2.7v2.3   c0,0.2,0,0.3,0.1,0.4c0.1,0.1,0.3,0.2,0.5,0.2c0.2,0,0.4-0.1,0.5-0.2c0.1-0.1,0.1-0.2,0.1-0.4v-2.3l1.6-2.7   c0.1-0.2,0.1-0.3,0.1-0.4C84.1,25.2,84.1,25,83.8,24.9z M83.5,25.1L83.5,25.1L83.5,25.1L83.5,25.1z"></path>
	<path class="st1" d="M90.7,24.8c-0.3,0-0.4,0.1-0.5,0.2c-0.1,0.1-0.1,0.2-0.1,0.4V29c0,0.4-0.1,0.8-0.3,1c-0.2,0.2-0.6,0.3-1.1,0.3   c-0.3,0-0.6,0-0.7-0.1c-0.2-0.1-0.3-0.2-0.4-0.3c-0.1-0.1-0.2-0.3-0.2-0.5c0-0.2-0.1-0.5-0.1-0.8v-3.2c0-0.2-0.1-0.3-0.2-0.4   c-0.2-0.2-0.7-0.2-0.9,0c-0.1,0.1-0.1,0.2-0.1,0.4v3.8c0,0.3,0.1,0.7,0.2,0.9c0.1,0.3,0.3,0.5,0.6,0.7c0.2,0.2,0.5,0.3,0.8,0.4   c0.3,0.1,0.6,0.1,1,0.1s0.7,0,1-0.1c0.3-0.1,0.6-0.3,0.8-0.4c0.2-0.2,0.4-0.4,0.6-0.7c0.1-0.3,0.2-0.6,0.2-0.9v-3.8   c0-0.2-0.1-0.3-0.2-0.4C91.1,24.9,91,24.8,90.7,24.8z"></path>
	<path class="st1" d="M98.6,25c-0.2-0.2-0.7-0.2-0.9,0c-0.1,0.1-0.1,0.2-0.1,0.4v3.7l-2.8-3.9c-0.1-0.1-0.1-0.1-0.2-0.2   c-0.1-0.1-0.2-0.1-0.4-0.1c-0.3,0-0.4,0.1-0.5,0.2c-0.1,0.1-0.1,0.2-0.1,0.4v5.4c0,0.2,0,0.3,0.1,0.4c0.1,0.1,0.2,0.2,0.5,0.2   c0.2,0,0.4-0.1,0.5-0.2c0.1-0.1,0.2-0.3,0.2-0.4v-3.6l2.8,3.8c0.1,0.1,0.1,0.2,0.2,0.2c0.1,0.1,0.2,0.1,0.4,0.1   c0.3,0,0.4-0.1,0.5-0.2c0.1-0.1,0.1-0.2,0.1-0.4v-5.4C98.7,25.2,98.7,25.1,98.6,25z"></path>
</g>
</svg>